<svg width="64" height="52" viewBox="0 0 64 52" fill="none" xmlns="http://www.w3.org/2000/svg">
<path d="M0 36.7185V19.5923H2.20128V21.5629H2.24793C3.33723 20.0096 4.98252 19.2456 6.81314 19.2456C10.637 19.2456 13.4662 22.2122 13.4662 26.1747C13.4662 29.7906 10.6597 32.7559 6.97578 32.7559C5.02917 32.7559 3.29184 31.9667 2.45596 30.576H2.40931V36.7185H0ZM11.0543 26.0335C11.0543 23.6936 9.19976 21.4469 6.62907 21.4469C4.2185 21.4469 2.36392 23.6015 2.36392 25.9894C2.36392 28.492 4.2185 30.5534 6.72111 30.5534C9.19976 30.5534 11.0543 28.4908 11.0543 26.0335Z" fill="white"/>
<path d="M23.6631 32.4306V25.4548C23.6631 22.6975 22.599 21.4468 20.4671 21.4468C18.3578 21.4468 17.0832 22.9749 17.0832 25.4788V32.4306H14.6714V15.2817H17.0832V20.9602H17.1286C17.8926 19.8243 19.1219 19.2456 20.7218 19.2456C23.7804 19.2456 26.075 21.1934 26.075 24.7135V32.4306H23.6631Z" fill="white"/>
<path d="M36.7601 32.4306V31.04H36.7134C36.0893 32.1293 34.6281 32.7546 32.9362 32.7546C30.1789 32.7546 27.583 31.272 27.583 26.7522V19.5911H29.9948V26.5668C29.9948 29.2535 30.9908 30.5521 33.1909 30.5521C35.4161 30.5521 36.552 28.9988 36.552 26.5202V19.5923H38.9614V32.4306H36.7601Z" fill="white"/>
<path d="M46.3049 23.0001C46.1902 22.0722 45.6582 21.4469 44.6596 21.4469C43.733 21.4469 43.1543 22.071 43.1543 22.8136C43.1543 23.9041 44.2675 24.2269 45.5409 24.6215C47.3488 25.1787 49.0168 26.2668 49.0168 28.6534C49.0168 31.1333 47.2089 32.7559 44.7076 32.7559C42.3903 32.7559 40.165 31.1799 40.165 28.2134H42.5744C42.6916 29.7666 43.4783 30.5534 44.7542 30.5534C45.8662 30.5534 46.6075 29.836 46.6075 28.7933C46.6075 27.9121 45.9355 27.3334 44.4302 26.8455C41.277 25.8495 40.745 24.4828 40.745 23.0228C40.745 20.751 42.6676 19.2456 44.7769 19.2456C46.9088 19.2456 48.6474 20.7283 48.7168 23.0001H46.3049Z" fill="white"/>
<path d="M52.3317 27.0547C52.8889 29.1867 54.5809 30.5534 56.5514 30.5534C58.0568 30.5534 59.4701 29.7666 60.2127 28.3987H62.622C61.626 31.04 59.2154 32.7559 56.4594 32.7559C52.8435 32.7559 49.9224 29.5574 49.9224 26.1268C49.9224 22.0722 52.981 19.2456 56.3888 19.2456C60.166 19.2456 63.038 22.1643 63.038 25.8495C63.038 26.2441 63.038 26.6135 62.97 27.0547H52.3317ZM60.6287 25.2002C60.4434 23.0228 58.5207 21.4469 56.4581 21.4469C54.4876 21.4469 52.5183 23.0001 52.3317 25.2002H60.6287Z" fill="white"/>
<path d="M10.5351 15.2817C14.4447 7.65911 22.3799 2.42696 31.5191 2.42696C40.6584 2.42696 48.5936 7.65911 52.5032 15.2817H55.1974C51.1063 6.27858 42.0351 0 31.5191 0C21.0031 0 11.932 6.27858 7.84082 15.2817H10.5351Z" fill="white"/>
<path d="M52.5032 36.7183C48.5936 44.3408 40.6584 49.573 31.5191 49.573C22.3799 49.573 14.4434 44.3408 10.5351 36.7183H7.84082C11.932 45.7201 21.0031 51.9999 31.5191 51.9999C42.0351 51.9999 51.1063 45.7201 55.1974 36.7183H52.5032Z" fill="white"/>
</svg>
